<svg xmlns="http://www.w3.org/2000/svg" width="1949.75" height="333.92" viewBox="0 0 487.438 83.480" role="img" aria-label="NexPoint">
<title>NexPoint</title>
<g transform="translate(2.000,8.721) scale(0.042300)"><path d="M0,0 L529,0 L539,5 L545,14 L546,17 L546,835 L541,841 L539,842 L530,842 L525,839 L504,818 L497,810 L477,790 L470,782 L450,762 L443,754 L423,734 L416,726 L396,706 L389,698 L369,678 L362,670 L342,650 L335,642 L315,622 L308,614 L288,594 L285,591 L283,590 L276,590 L268,597 L214,651 L207,659 L141,725 L134,733 L68,799 L61,807 L-5,873 L-12,881 L-78,947 L-85,955 L-150,1020 L-157,1028 L-223,1094 L-230,1102 L-296,1168 L-303,1176 L-369,1242 L-376,1250 L-442,1316 L-449,1324 L-514,1389 L-521,1397 L-587,1463 L-594,1471 L-660,1537 L-667,1545 L-733,1611 L-740,1619 L-806,1685 L-811,1690 L-819,1694 L-1191,1694 L-1377,1693 L-1374,1688 L-1366,1680 L-1359,1672 L-1339,1652 L-1332,1644 L-1313,1625 L-1306,1617 L-1286,1597 L-1279,1589 L-1259,1569 L-1252,1561 L-1232,1541 L-1225,1533 L-1205,1513 L-1198,1505 L-1179,1486 L-1172,1478 L-1152,1458 L-1145,1450 L-1125,1430 L-1118,1422 L-1098,1402 L-1091,1394 L-1071,1374 L-1064,1366 L-1044,1346 L-1037,1338 L-1018,1319 L-1011,1311 L-991,1291 L-984,1283 L-964,1263 L-957,1255 L-937,1235 L-930,1227 L-910,1207 L-903,1199 L-883,1179 L-876,1171 L-857,1152 L-850,1144 L-830,1124 L-823,1116 L-803,1096 L-796,1088 L-776,1068 L-769,1060 L-749,1040 L-742,1032 L-722,1012 L-715,1004 L-696,985 L-689,977 L-669,957 L-662,949 L-642,929 L-635,921 L-615,901 L-608,893 L-588,873 L-581,865 L-561,845 L-554,837 L-535,818 L-528,810 L-508,790 L-501,782 L-481,762 L-474,754 L-454,734 L-447,726 L-427,706 L-420,698 L-400,678 L-393,670 L-374,651 L-367,643 L-347,623 L-340,615 L-320,595 L-313,587 L-293,567 L-286,559 L-266,539 L-259,531 L-240,512 L-233,504 L-213,484 L-206,476 L-186,456 L-179,448 L-159,428 L-152,420 L-132,400 L-125,392 L-105,372 L-98,364 L-79,345 L-72,337 L-52,317 L-45,309 L-40,303 L-40,296 L-41,292 L-45,290 L-53,282 L-61,275 L-77,260 L-89,249 L-102,237 L-115,225 L-130,211 L-142,200 L-155,188 L-168,176 L-181,164 L-194,152 L-209,138 L-221,127 L-234,115 L-247,103 L-260,91 L-275,77 L-287,66 L-300,54 L-313,42 L-326,30 L-333,24 L-333,22 L-335,22 L-337,18 L-337,8 L-332,2 L-329,1 Z " fill="#7CB741" transform="translate(1414,4)"/><path d="M0,0 L416,0 L426,4 L440,19 L447,27 L456,37 L465,47 L472,55 L482,66 L489,74 L500,86 L507,94 L516,104 L525,114 L532,122 L542,133 L549,141 L560,153 L567,161 L576,171 L585,181 L592,189 L602,200 L609,208 L619,219 L626,227 L637,239 L644,247 L653,257 L662,267 L669,275 L679,286 L686,294 L697,306 L704,314 L713,324 L722,334 L729,342 L739,353 L746,361 L757,373 L764,381 L773,391 L782,401 L789,409 L799,420 L806,428 L817,440 L824,448 L833,458 L842,468 L849,476 L859,487 L866,495 L877,507 L884,515 L893,525 L902,535 L909,543 L919,554 L926,562 L936,573 L943,581 L954,593 L961,601 L970,611 L979,621 L986,629 L985,633 L971,647 L964,655 L944,675 L937,683 L918,702 L911,710 L891,730 L884,738 L864,758 L857,766 L838,785 L831,793 L811,813 L804,821 L785,840 L778,848 L758,868 L751,876 L747,880 L742,879 L733,868 L719,853 L712,845 L700,831 L688,818 L679,807 L665,792 L658,784 L646,770 L634,757 L625,746 L611,731 L604,723 L592,709 L580,696 L571,685 L557,670 L550,662 L538,648 L526,635 L517,624 L503,609 L496,601 L484,587 L472,574 L463,563 L449,548 L442,540 L430,526 L418,513 L409,502 L395,487 L388,479 L376,465 L364,452 L359,446 L357,445 L349,445 L344,449 L343,451 L342,1300 L329,1313 L322,1321 L303,1340 L296,1348 L276,1368 L269,1376 L249,1396 L242,1404 L222,1424 L215,1432 L195,1452 L188,1460 L169,1479 L162,1487 L142,1507 L135,1515 L115,1535 L108,1543 L88,1563 L81,1571 L61,1591 L54,1599 L35,1618 L28,1626 L8,1646 L1,1654 L-17,1672 L-20,1673 L-20,17 L-16,9 L-9,3 Z " fill="#005CC8" transform="translate(24,6)"/><path d="M0,0 L4,1 L11,8 L18,16 L27,26 L36,36 L43,44 L53,55 L60,63 L71,75 L78,83 L87,93 L96,103 L103,111 L113,122 L120,130 L130,141 L137,149 L147,160 L154,168 L164,179 L171,187 L182,199 L189,207 L198,217 L207,227 L214,235 L224,246 L231,254 L241,265 L248,273 L258,284 L265,292 L276,304 L283,312 L292,322 L301,332 L308,340 L318,351 L325,359 L335,370 L342,378 L352,389 L359,397 L369,408 L376,416 L387,428 L394,436 L403,446 L412,456 L419,464 L429,475 L436,483 L446,494 L453,502 L463,513 L470,521 L480,532 L487,540 L498,552 L505,560 L514,570 L523,580 L530,588 L540,599 L547,607 L557,618 L564,626 L574,637 L581,645 L591,656 L598,664 L609,676 L612,682 L611,691 L606,696 L604,697 L158,697 L149,693 L141,685 L132,674 L118,659 L109,648 L95,633 L88,625 L76,611 L64,598 L55,587 L41,572 L34,564 L22,550 L10,537 L1,526 L-13,511 L-20,503 L-32,489 L-44,476 L-53,465 L-67,450 L-76,439 L-90,424 L-97,416 L-109,402 L-121,389 L-130,378 L-144,363 L-151,355 L-163,341 L-175,328 L-184,317 L-198,302 L-207,291 L-221,276 L-228,268 L-240,254 L-244,250 L-243,246 L-204,207 L-197,199 L-129,131 L-122,123 L-55,56 L-48,48 Z " fill="#005CC8" transform="translate(1334,1001)"/></g>
<g fill="#005CC8"><path transform="translate(89.077,80.721) scale(0.10000,-0.10000)" d="M338.7251246477347 -7.586386299588121Q246.56936917407327 -7.586386299588121 177.5 28.20680685020594Q108.43063082592673 64 70.44764795144158 126.6897897246911Q32.46466507695643 189.3795794493822 32.46466507695643 269.17277259917626Q32.46466507695643 349.7591588987644 69.64594623889009 412.25065033600697Q106.82722740082376 474.7421417732495 171.89659657489702 510.13873834814655Q236.9659657489703 545.5353349230436 318.9319314979406 545.5353349230436Q398.12172122263166 545.5353349230436 461.4927921092564 512.0268263602861Q524.8638629958812 478.5183177975287 561.838337307609 416.12172122263166Q598.8128116193367 353.7251246477347 598.8128116193367 266.7591588987644Q598.8128116193367 257.7761760242792 598.1145133318882 246.29319314979406Q597.4162150444397 234.81021027530892 596.4162150444396 225.2238239757208H159.12432256665943V316.12172122263166H513.8272274008237L453.56676783004553 288.9319314979406Q454.1701712551485 330.5863862995881 436.9378387166703 361.8357359635812Q419.7055061781921 393.08508562757424 389.74934966399303 410.7140147409495Q359.79319314979404 428.34294385432474 319.7251246477347 428.34294385432474Q279.65705614567526 428.34294385432474 249.20089963147626 410.7140147409495Q218.74474311727727 393.08508562757424 202.01241057879906 361.5340342510297Q185.28007804032083 329.9829828744852 185.28007804032083 287.12172122263166V262.7761760242792Q185.28007804032083 218.72512464773467 204.71070886624756 185.57917840884457Q224.14133969217428 152.43323216995447 259.7957944938218 134.50260134402774Q295.45024929546935 116.57197051810101 343.3115109473228 116.57197051810101Q386.13873834814655 116.57197051810101 418.4829828744852 129.58898764361587Q450.82722740082374 142.60600476913072 478.43063082592676 169.24344244526338L561.4332321699545 79.20680685020594Q523.8468458703663 36.81021027530891 468.0621612833297 14.611911987860395Q412.2774766962931 -7.586386299588121 338.7251246477347 -7.586386299588121Z"/><path transform="translate(151.177,80.721) scale(0.10000,-0.10000)" d="M3.671471927162365 0 245.3795794493822 315.6740732711901 242.39659657489702 229.7225233037069 11.481682202471276 537.9489486234554H186.2290266637763L331.96856709299806 337.0366355950574L266.3285280728376 334.8638629958812L416.82722740082374 537.9489486234554H583.2290266637763L350.71070886624756 232.8782787773683L351.3141122913505 317.45024929546935L591.2460437892911 0H413.7055061781921L260.94894862345546 213.51571645350097L326.38218079340993 204.73954042922176L174.45285063949706 0Z"/></g>
<g fill="#7CB741"><path transform="translate(209.677,80.721) scale(0.10000,-0.10000)" d="M82.9463472794277 0V700H385.5523520485584Q479.9319314979406 700 548.1132126598743 669.5085085627575Q616.2944938218079 639.0170171255148 653.1825818339476 581.9306308259268Q690.0706698460872 524.8442445263386 690.0706698460872 446.2578582267505Q690.0706698460872 368.2748753522653 653.1825818339476 311.3867873401257Q616.2944938218079 254.49869932798612 548.1132126598743 223.80890960329504Q479.9319314979406 193.11911987860395 385.5523520485584 193.11911987860395H172.91491437242576L245.3311294168654 265.7591588987644V0ZM245.3311294168654 248.20680685020594 172.91491437242576 325.0366355950574H377.1897897246911Q451.5327335790158 325.0366355950574 488.9110123563841 356.99279210925647Q526.2892911337524 388.94894862345546 526.2892911337524 446.2578582267505Q526.2892911337524 504.1701712551485 488.9110123563841 536.1263277693474Q451.5327335790158 568.0824842835465 377.1897897246911 568.0824842835465H172.91491437242576L245.3311294168654 644.912313028398Z"/><path transform="translate(281.877,80.721) scale(0.10000,-0.10000)" d="M327.5353349230436 -7.586386299588121Q242.04036887527025 -7.586386299588121 175.53720156314998 28.008508562757424Q109.0340342510297 63.60340342510297 70.74934966399306 126.20803300455236Q32.46466507695643 188.81266258400174 32.46466507695643 269.2748187666569Q32.46466507695643 350.36256232386734 70.86227712064641 412.57858698008465Q109.2598891643364 474.79461163630197 175.5180325943078 510.1649732796728Q241.7761760242792 545.5353349230436 327.5353349230436 545.5353349230436Q413.2944938218079 545.5353349230436 480.0863469403326 510.20409213157757Q546.8782000588573 474.8728493401116 584.742102413994 412.7251367088624Q622.6060047691308 350.5774240776132 622.6060047691308 269.2676698737473Q622.6060047691308 188.58638629958813 584.821320182094 126.09489486234554Q547.0366355950574 63.60340342510297 480.019580008811 28.008508562757424Q413.00252442256453 -7.586386299588121 327.5353349230436 -7.586386299588121ZM327.5353349230436 120.14133969217428Q367.0170171255148 120.14133969217428 397.8782787773683 137.87367223065252Q428.73954042922173 155.60600476913072 446.77357468025144 189.45875785822676Q464.80760893128115 223.31151094732277 464.80760893128115 269.24872547786055Q464.80760893128115 316.0340342510297 446.77357468025144 349.18848905267726Q428.73954042922173 382.34294385432474 397.8782787773683 400.07527639280295Q367.0170171255148 417.80760893128115 327.83703663559504 417.80760893128115Q288.65705614567526 417.80760893128115 257.7957944938218 400.07527639280295Q226.93453284196835 382.34294385432474 208.59879687838716 349.18848905267726Q190.26306091480598 316.0340342510297 190.26306091480598 269.24872547786055Q190.26306091480598 223.31151094732277 208.59879687838716 189.45875785822676Q226.93453284196835 155.60600476913072 257.75320131087335 137.87367223065252Q288.57186977977835 120.14133969217428 327.5353349230436 120.14133969217428Z"/><path transform="translate(346.377,80.721) scale(0.10000,-0.10000)" d="M72.32592672880989 0V537.9489486234554H228.3311294168654V0ZM150.32852807283763 612.7225233037069Q107.03403425102971 612.7225233037069 79.9901907652287 637.8782787773682Q52.9463472794277 663.0340342510297 52.9463472794277 699.9659657489703Q52.9463472794277 736.8978972469109 79.9901907652287 762.0536527205722Q107.03403425102971 787.2094081942337 150.32852807283763 787.2094081942337Q193.62302189464555 787.2094081942337 220.66686538044655 763.4502492954693Q247.71070886624756 739.691090396705 247.71070886624756 702.7591588987643Q247.71070886624756 664.0340342510297 220.96856709299806 638.3782787773682Q194.22642531974856 612.7225233037069 150.32852807283763 612.7225233037069Z"/><path transform="translate(375.477,80.721) scale(0.10000,-0.10000)" d="M72.32592672880989 0V537.9489486234554H220.9515499674832V388.8102102753089L193.03663559505745 433.60340342510295Q222.0196184695426 488.36256232386734 275.91621504443964 516.9489486234554Q329.8128116193367 545.5353349230436 398.62302189464555 545.5353349230436Q462.8298287448515 545.5353349230436 513.2264253197486 520.337036635595Q563.6230218946456 495.13873834814655 592.821320182094 442.64724691090396Q622.0196184695426 390.1557554736614 622.0196184695426 307.7761760242792V0H466.0144157814871V284.4646650769564Q466.0144157814871 349.34294385432474 437.4548558421851 380.1956969434208Q408.89529590288316 411.0484500325168 357.37957944938216 411.0484500325168Q319.89789724691093 411.0484500325168 290.4417407327119 395.4195209191416Q260.9855842185129 379.7905918057663 244.65835681768914 347.9463472794277Q228.3311294168654 316.10210275308907 228.3311294168654 266.05105137654454V0Z"/><path transform="translate(443.577,80.721) scale(0.10000,-0.10000)" d="M292.2774766962931 -7.586386299588121Q196.7761760242792 -7.586386299588121 144.0340342510297 40.5778777368307Q91.29189247778018 88.74214177324951 91.29189247778018 184.84684587036637V657.3285280728377H247.29709516583569V187.45024929546932Q247.29709516583569 153.39919791892478 265.0209191415565 134.571970518101Q282.74474311727727 115.74474311727727 313.6060047691307 115.74474311727727Q351.0536527205723 115.74474311727727 377.2774766962931 135.571970518101L418.6060047691307 25.63743767613267Q395.0196184695426 8.827227400823759 361.5366355950574 0.6204205506178191Q328.0536527205723 -7.586386299588121 292.2774766962931 -7.586386299588121ZM7.844244526338608 418.2042055061782V537.9489486234554H381.0196184695426V418.2042055061782Z"/></g>
</svg>